<?xml version="1.0" standalone="no"?>
<!DOCTYPE svg PUBLIC "-//W3C//DTD SVG 20010904//EN"
 "http://www.w3.org/TR/2001/REC-SVG-20010904/DTD/svg10.dtd">
<svg version="1.0" xmlns="http://www.w3.org/2000/svg"
 width="915.000000pt" height="196.000000pt" viewBox="0 0 915.000000 196.000000"
 preserveAspectRatio="xMidYMid meet">

<g transform="translate(0.000000,196.000000) scale(0.100000,-0.100000)"
fill="#000000" stroke="none">
<path d="M732 1909 c-267 -45 -510 -232 -618 -476 -52 -116 -68 -199 -68 -338
0 -151 16 -227 74 -350 47 -101 82 -151 156 -227 164 -167 360 -250 595 -250
59 0 116 3 127 6 20 7 20 8 -8 69 -42 90 -60 170 -60 267 0 173 58 311 185
436 134 134 280 190 468 182 111 -6 106 -11 81 85 -75 289 -327 526 -625 587
-98 21 -216 24 -307 9z"/>
<path d="M2970 1655 c0 -135 -4 -245 -9 -245 -5 0 -26 7 -46 16 -151 63 -350
21 -459 -96 -196 -209 -129 -550 131 -673 64 -30 75 -32 178 -32 103 0 114 2
178 32 129 62 228 190 245 320 4 32 6 253 4 491 l-2 432 -110 0 -110 0 0 -245z
m-93 -461 c109 -88 110 -219 1 -307 -96 -77 -247 -25 -288 99 -27 80 14 184
87 224 59 31 150 24 200 -16z"/>
<path d="M4282 1333 l3 -468 28 -57 c33 -68 70 -101 156 -141 47 -22 84 -31
137 -35 l74 -5 0 112 0 111 -40 0 c-23 0 -54 7 -70 15 -52 27 -60 58 -60 220
l0 145 85 0 85 0 0 105 0 105 -85 0 -85 0 0 180 0 180 -115 0 -116 0 3 -467z"/>
<path d="M3603 1445 c-290 -90 -386 -476 -172 -696 57 -58 148 -105 239 -121
156 -27 335 51 425 185 19 29 35 55 35 59 0 5 -58 8 -129 8 -108 0 -131 -3
-142 -17 -20 -24 -89 -53 -127 -53 -43 0 -100 24 -135 58 -29 27 -57 72 -57
92 0 7 88 10 271 10 l271 0 34 34 c32 32 34 38 34 101 0 148 -114 284 -281
336 -71 22 -202 25 -266 4z m200 -189 c49 -18 104 -61 128 -100 10 -17 19 -34
19 -38 0 -5 -94 -8 -210 -8 -115 0 -210 3 -210 8 1 17 47 87 71 104 59 44 136
57 202 34z"/>
<path d="M5065 1447 c-83 -21 -144 -58 -205 -124 -73 -78 -101 -146 -108 -264
-10 -185 73 -325 236 -402 114 -53 240 -50 335 10 l37 23 0 -25 0 -25 116 0
116 0 -4 248 c-4 277 -9 301 -82 401 -96 130 -285 198 -441 158z m197 -254
c107 -63 130 -204 49 -297 -42 -48 -123 -69 -193 -51 -86 22 -139 90 -140 179
-1 88 42 154 119 182 47 18 123 11 165 -13z"/>
<path d="M5730 1218 c0 -128 5 -264 10 -303 25 -176 128 -274 297 -283 77 -4
108 1 186 33 15 6 17 0 17 -56 0 -87 -14 -129 -55 -169 -45 -43 -121 -53 -173
-21 -37 24 -72 76 -72 109 0 22 -2 22 -121 22 l-122 0 7 -52 c16 -125 116
-254 234 -299 80 -31 204 -31 285 0 72 28 171 118 213 193 l29 53 3 503 3 502
-114 0 -114 0 -6 -167 c-4 -91 -7 -210 -7 -263 0 -89 -2 -99 -25 -124 -46 -50
-117 -60 -173 -26 -57 35 -62 61 -62 335 l0 245 -120 0 -120 0 0 -232z"/>
<path d="M1468 1140 c-171 -30 -315 -134 -393 -281 -61 -116 -77 -234 -50
-362 39 -186 172 -336 352 -399 98 -33 260 -32 353 3 181 69 306 212 345 396
18 86 18 140 0 226 -28 135 -133 280 -252 350 -99 57 -252 86 -355 67z"/>
</g>
</svg>
